inDegrees=yes
name=ik_S55_A08_T01
DataType=double
version=3
OpenSimVersion=4.3-2021-08-27-4bc7ad9
endheader
time	pelvis_tilt	pelvis_list	pelvis_rotation	pelvis_tx	pelvis_ty	pelvis_tz	hip_flexion_r	hip_adduction_r	hip_rotation_r	knee_angle_r	knee_angle_r_beta	ankle_angle_r	subtalar_angle_r	mtp_angle_r	hip_flexion_l	hip_adduction_l	hip_rotation_l	knee_angle_l	knee_angle_l_beta	ankle_angle_l	subtalar_angle_l	mtp_angle_l	lumbar_extension	lumbar_bending	lumbar_rotation	arm_flex_r	arm_add_r	arm_rot_r	elbow_flex_r	pro_sup_r	wrist_flex_r	wrist_dev_r	arm_flex_l	arm_add_l	arm_rot_l	elbow_flex_l	pro_sup_l	wrist_flex_l	wrist_dev_l
6.739999999999944	-4.838123665462624	-1.294792839311425	21.14064660017295	0	0.9399999999999999	0	44.20761138190188	-10.13456024706026	-10.30045658651884	55.27245732938692	0.9646863660658737	0	0	0	44.20761138190188	-10.13456024706026	-10.30045658651884	55.27245732938692	0.9646863660658737	0	0	0	-2.615121651635658	-1.192700817048417	0.2789680185578428	20.04324900574025	-13.75905166190097	-13.29725357754094	56.51129345728571	128.6873016902633	0	0	27.28434430823402	-25.31503920436295	-12.49985195760354	88.50409474489953	113.5110611679433	0	0
6.759999999999944	-4.819862915603812	-1.277068518858073	21.06625513834579	0	0.9399999999999999	0	44.20792540570289	-10.13437457361189	-10.30019036143812	55.27238487902201	0.9646851015684617	0	0	0	44.20792540570289	-10.13437457361189	-10.30019036143812	55.27238487902201	0.9646851015684617	0	0	0	-2.591000552703451	-1.185085800119473	0.3254153969682264	20.01870269290024	-13.76301191470701	-13.26127903376777	56.51672529849633	128.661693864093	0	0	28.10518777086714	-25.15880365347637	-12.22590418572831	87.73877231584058	113.4985355290202	0	0
6.779999999999943	-4.81905328544789	-1.277403329414477	20.98159089140424	0	0.9399999999999999	0	44.20831614323426	-10.13414354028125	-10.29985903623859	55.2722948133083	0.9646835296252143	0	0	0	44.20831614323426	-10.13414354028125	-10.29985903623859	55.2722948133083	0.9646835296252143	0	0	0	-2.589126885977562	-1.189045989513785	0.4080635839236778	20.04860029464736	-13.71688128224049	-13.25870275391526	56.47403139994714	128.674846653614	0	0	28.96569074669488	-24.98381552702045	-11.80761546377418	86.8753226337695	113.1105056852296	0	0
6.799999999999943	-4.810886957855823	-1.264448745187664	20.90367732067608	0	0.9399999999999999	0	44.20868359200793	-10.13392648672542	-10.29954759848929	55.27221011810937	0.9646820514151324	0	0	0	44.20868359200793	-10.13392648672542	-10.29954759848929	55.27221011810937	0.9646820514151324	0	0	0	-2.574818177165714	-1.185947114056001	0.5280723072732193	20.02906462221976	-13.7090360389006	-13.29453168127252	56.45724969197848	128.6733211937835	0	0	29.74999738747265	-24.6799317484397	-11.23608834949567	85.91169846189248	112.785132379869	0	0
6.819999999999943	-4.817987161798196	-1.255480676589293	20.83520717082667	0	0.9399999999999999	0	44.20898155937283	-10.1337507870433	-10.29929530293898	55.27214138192043	0.9646808517423201	0	0	0	44.20898155937283	-10.1337507870433	-10.29929530293898	55.27214138192043	0.9646808517423201	0	0	0	-2.577190049356742	-1.178693387062111	0.6079309865613903	20.06492036240467	-13.73456441724942	-13.30186295507389	56.4351960061669	128.7043336374009	0	0	30.44749122169244	-24.40671725504792	-10.81261354218049	85.28527185324209	112.9845468448639	0	0
6.839999999999942	-4.797307206683849	-1.251695674017928	20.76674067255839	0	0.9399999999999999	0	44.20922002783858	-10.13361034658629	-10.29909352701504	55.27208634133191	0.9646798911028281	0	0	0	44.20922002783858	-10.13361034658629	-10.29909352701504	55.27208634133191	0.9646798911028281	0	0	0	-2.55517598696659	-1.18671281036733	0.6909205110636324	20.05006322804795	-13.73340679204253	-13.36668508359986	56.3876335557492	128.7323256461403	0	0	30.96634773399301	-24.17185746669913	-10.31526804350383	84.3788961480562	113.0776808515654	0	0
6.859999999999942	-4.810329344117062	-1.24552091126871	20.67137293008696	0	0.9399999999999999	0	44.20944301748855	-10.13347907929345	-10.2989048810319	55.27203488136972	0.9646789929570551	0	0	0	44.20944301748855	-10.13347907929345	-10.2989048810319	55.27203488136972	0.9646789929570551	0	0	0	-2.56427674919287	-1.179318864175554	0.7524569078423115	20.11405772474328	-13.76564697768905	-13.35320028083189	56.35292983885191	128.7491334552505	0	0	31.48898135601288	-23.90786310278073	-9.900305243687825	83.66798901043795	112.6518495627677	0	0
6.879999999999941	-4.815034248741915	-1.25396184753063	20.5945824952964	0	0.9399999999999999	0	44.20969111524191	-10.13333332738441	-10.29869524706311	55.27197755606493	0.9646779924417417	0	0	0	44.20969111524191	-10.13333332738441	-10.29869524706311	55.27197755606493	0.9646779924417417	0	0	0	-2.570563235174159	-1.189249737548834	0.8281676643131137	20.13970571204733	-13.74358299757943	-13.34677749777881	56.3343601541786	128.7438519542772	0	0	31.97907299952336	-23.72036823158972	-9.456746840931217	83.01208790885518	112.1931957434767	0	0
6.899999999999941	-4.808787172307932	-1.268683799063709	20.55339625499085	0	0.9399999999999999	0	44.21001278119794	-10.13314431692367	-10.2984233749999	55.27190329828875	0.9646766963990522	0	0	0	44.21001278119794	-10.13314431692367	-10.2984233749999	55.27190329828875	0.9646766963990522	0	0	0	-2.569257113094586	-1.207821420735944	0.8849417870111662	20.15392590276653	-13.71635351549429	-13.32896163270038	56.32082126414939	128.7422165247043	0	0	32.33131671379537	-23.59943549675426	-9.121686537736199	82.55285716929146	112.1097605778695	0	0
6.91999999999994	-4.804499453135883	-1.270503169216587	20.49127843758292	0	0.9399999999999999	0	44.21038624928238	-10.13292475261651	-10.29810755186885	55.27181720288027	0.9646751937507034	0	0	0	44.21038624928238	-10.13292475261651	-10.29810755186885	55.27181720288027	0.9646751937507034	0	0	0	-2.565525239575293	-1.21333728510787	0.9381455702708204	20.13089443490191	-13.69363998583605	-13.28409787447163	56.31138383587899	128.7291141704825	0	0	32.59843207030907	-23.43034471148864	-8.82462220359341	82.07158779580828	111.7503556394593	0	0
6.93999999999994	-4.810421321444998	-1.280952469701849	20.46575477937044	0	0.9399999999999999	0	44.21230116335077	-10.13178502292128	-10.29647831653061	55.27137744041913	0.9646675184478298	0	0	0	44.21230116335077	-10.13178502292128	-10.29647831653061	55.27137744041913	0.9646675184478298	0	0	0	-2.578850284041767	-1.217972831136558	0.9332220744499639	20.16658500275006	-13.69563175877239	-13.23389330991599	56.3507021672462	128.6704860380421	0	-2.559859054090264e-36	32.58892475929836	-23.42631908638911	-8.802274872968471	82.03678193789831	111.6615435196751	0	-2.559859054090264e-36
6.95999999999994	-4.814521201879188	-1.272824744745266	20.39348944691276	0	0.9399999999999999	0	44.21255833367972	-10.13163539359554	-10.29626207244147	55.27131791763275	0.9646664795792275	0	0	0	44.21255833367972	-10.13163539359554	-10.29626207244147	55.27131791763275	0.9646664795792275	0	0	0	-2.579007749005674	-1.211914788542158	0.9947414375744915	20.19704341903039	-13.70944112634143	-13.18687566191316	56.30631538630917	128.702816884243	0	0	32.88815503593392	-23.24138210892444	-8.485986663221988	81.50848885301613	111.1333145095305	0	0
6.979999999999939	-4.811050574251706	-1.27553096021916	20.30624953563587	0	0.9399999999999999	0	44.21284212318677	-10.13146975405999	-10.29602291396159	55.27125247192432	0.9646653373361341	0	0	0	44.21284212318677	-10.13146975405999	-10.29602291396159	55.27125247192432	0.9646653373361341	0	0	0	-2.574700392158124	-1.221224679710855	1.109275653103128	20.20089480476018	-13.70610960149992	-13.21886592341133	56.27488665027478	128.7036060863987	0	0	33.4270082025834	-22.84745783157121	-7.755877786265454	80.80747868657555	110.4965647022951	0	0
6.999999999999939	-4.806229977745952	-1.277203070225848	20.26480122023185	0	0.9399999999999999	0	44.21304497153456	-10.13135353855784	-10.29585402283736	55.27120491946492	0.9646645073891501	0	0	0	44.21304497153456	-10.13135353855784	-10.29585402283736	55.27120491946492	0.9646645073891501	0	0	0	-2.570170324976818	-1.226625880741769	1.155052743378707	20.18612236685951	-13.70494532745075	-13.25777026105077	56.271588264855	128.7433123004034	0	0	33.42595179803321	-22.8213743532259	-7.675523537843723	80.61808883205053	109.8646910260984	0	0
7.019999999999938	-4.831276699935428	-1.304481676956327	20.23777004087737	0	0.9399999999999999	0	44.21327597945422	-10.13121901565588	-10.2956595953596	55.27115159249658	0.9646635766579725	0	0	0	44.21327597945422	-10.13121901565588	-10.2956595953596	55.27115159249658	0.9646635766579725	0	0	0	-2.602726422041222	-1.245389134230171	1.196454726414748	20.23293903892771	-13.7027600446748	-13.31126704229357	56.28196882481332	128.7620396706702	0	0	33.6828683308482	-22.68122811918285	-7.423568441341937	80.3525408967448	109.678378948098	0	0
7.039999999999938	-4.830918942725774	-1.311686156523007	20.23652603050588	0	0.9399999999999999	0	44.21392051020047	-10.13053013352791	-10.29485950054334	55.27102569694513	0.9646613793660861	0	0	0	44.21392051020047	-10.13053013352791	-10.29485950054334	55.27102569694513	0.9646613793660861	0	0	0	-2.606102001659482	-1.251352169769732	1.19424935711615	20.21029937278013	-13.7059076030695	-13.27791908080273	56.30028276739127	128.7388144890025	0	0	33.6781977749764	-22.67953347694369	-7.383186591861213	80.27262495844252	109.6438636513503	0	0
7.059999999999937	-4.825809721821541	-1.33216830325308	20.20416289763683	0	0.9399999999999999	0	44.2141668393743	-10.13038879589919	-10.29465395765589	55.27096829210367	0.9646603774625959	0	0	0	44.2141668393743	-10.13038879589919	-10.29465395765589	55.27096829210367	0.9646603774625959	0	0	0	-2.606831196067596	-1.276657729715097	1.282592278266102	20.17937366126902	-13.69320644874598	-13.28536780676555	56.3292994857255	128.7327798908192	0	0	34.16599886179857	-22.42313969112109	-7.037481644663726	79.58831612981544	109.6442174978069	0	0
7.079999999999937	-4.820251844394265	-1.328024817501494	20.16428477116082	0	0.9399999999999999	0	44.2144071453643	-10.13025129801679	-10.29445379369825	55.27091216733232	0.964659397900544	0	0	0	44.2144071453643	-10.13025129801679	-10.29445379369825	55.27091216733232	0.964659397900544	0	0	0	-2.600209092566361	-1.275501110359243	1.302633790854299	20.17417728165532	-13.69183625056474	-13.17564420654688	56.3372338297108	128.7249014741857	0	0	34.39234481136909	-22.26652117756468	-6.931986151361627	79.18481844003499	109.5065094388873	0	0
7.099999999999937	-4.820814600080269	-1.330778490488672	20.13830106703636	0	0.9399999999999999	0	44.21466591074329	-10.13010346011174	-10.29423844160321	55.27085168286465	0.9646583422474367	0	0	0	44.21466591074329	-10.13010346011174	-10.29423844160321	55.27085168286465	0.9646583422474367	0	0	0	-2.601509508842617	-1.279214894934967	1.332919743059672	20.16903497005577	-13.69122730047912	-13.11358932879979	56.34054927520647	128.7046303970285	0	0	34.64293302896704	-22.10495632728741	-6.809954893760023	78.7872051767494	109.5390442012568	0	0
7.119999999999936	-4.821608049027395	-1.330463357700155	20.10984672228052	0	0.9399999999999999	0	44.21491967495269	-10.12995731262231	-10.29402608981264	55.27079286362662	0.9646573156580698	0	0	0	44.21491967495269	-10.12995731262231	-10.29402608981264	55.27079286362662	0.9646573156580698	0	0	0	-2.601913816093486	-1.280031871225868	1.364929169929036	20.16440574078287	-13.69257196840279	-13.11742576695465	56.33988602298039	128.7034313661955	0	0	34.85123009480439	-21.93827283712259	-6.698572191384994	78.46899096866068	109.5309608782936	0	0
7.139999999999936	-4.821168149384258	-1.325247400276348	20.08267668838275	0	0.9399999999999999	0	44.21512493807673	-10.12983865692368	-10.2938538816474	55.27074547805556	0.9646564886238368	0	0	0	44.21512493807673	-10.12983865692368	-10.2938538816474	55.27074547805556	0.9646564886238368	0	0	0	-2.599403354013095	-1.276749328771177	1.397317536768058	20.15346291380627	-13.76745532892123	-13.18060989482363	56.35368163488469	128.7081278736973	0	0	35.03246133293	-21.73053886571814	-6.542664437950837	78.26396250143802	109.3958819514289	0	0
7.159999999999935	-4.821570502318761	-1.320897671317903	20.02526420915811	0	0.9399999999999999	0	44.2153641428579	-10.1297015320809	-10.2936542759382	55.27068986164632	0.9646555179343775	0	0	0	44.2153641428579	-10.1297015320809	-10.2936542759382	55.27068986164632	0.9646555179343775	0	0	0	-2.597452952283938	-1.275113128774187	1.452111838438625	20.15100166082817	-13.7754995293696	-13.17713033069726	56.35590503256301	128.7073533252675	0	0	35.15910366349185	-21.56958031073932	-6.411586913652074	78.08112622155052	108.6263897034017	0	0
